<?xml version="1.0" standalone="no"?>
<!DOCTYPE svg PUBLIC "-//W3C//DTD SVG 20010904//EN"
 "http://www.w3.org/TR/2001/REC-SVG-20010904/DTD/svg10.dtd">
<svg version="1.0" xmlns="http://www.w3.org/2000/svg"
 width="372.000000pt" height="367.000000pt" viewBox="0 0 372.000000 367.000000"
 preserveAspectRatio="xMidYMid meet">

<g transform="translate(0.000000,367.000000) scale(0.100000,-0.100000)"
fill="#000000" stroke="none">
<path d="M543 3463 c-36 -7 -53 -41 -53 -108 0 -94 26 -192 76 -292 63 -129
62 -148 -17 -309 -62 -125 -63 -127 -62 -208 2 -98 18 -154 74 -252 43 -75 65
-92 114 -85 26 3 55 37 55 64 0 12 -21 62 -46 112 -39 77 -45 99 -46 153 -1
57 4 72 58 179 l59 116 0 96 c0 94 -1 98 -47 187 -46 90 -68 170 -68 250 0 56
-7 72 -41 89 -15 8 -29 14 -31 14 -2 -1 -13 -4 -25 -6z"/>
<path d="M863 3460 c-32 -13 -43 -41 -43 -112 0 -96 24 -189 74 -288 62 -122
62 -150 -3 -274 -66 -126 -85 -192 -77 -272 12 -119 91 -283 144 -302 46 -16
101 17 102 60 0 9 -21 57 -46 107 -34 66 -47 105 -51 148 -5 56 -2 63 59 183
l63 125 0 90 c0 89 -1 91 -53 195 -50 99 -54 112 -60 203 -6 77 -11 101 -27
116 -26 24 -54 32 -82 21z"/>
<path d="M1200 3462 c-42 -13 -50 -33 -50 -120 0 -104 20 -184 72 -284 62
-122 62 -134 -13 -290 -71 -147 -81 -205 -59 -312 13 -63 81 -205 111 -232 25
-23 74 -22 99 1 29 27 25 75 -11 137 -43 73 -59 121 -59 182 0 43 10 71 62
176 62 122 63 127 63 206 0 78 -2 85 -53 186 -47 93 -54 116 -63 199 -6 52
-16 105 -22 118 -12 25 -50 41 -77 33z"/>
<path d="M1656 2864 c-79 -29 -136 -94 -136 -156 0 -61 29 -87 321 -283 300
-201 312 -212 270 -254 -21 -21 -28 -21 -614 -21 -565 0 -593 -1 -623 -19 -88
-53 -129 -183 -88 -279 31 -75 110 -132 183 -132 l40 0 -22 -50 -22 -50 -58 0
c-138 0 -227 -106 -199 -237 11 -54 11 -56 -14 -75 -13 -11 -34 -39 -46 -61
-50 -98 -41 -192 24 -264 l41 -43 -27 -39 c-36 -52 -58 -127 -51 -172 15 -88
-6 -75 682 -415 l636 -314 121 1 121 0 -310 154 c-170 84 -492 243 -715 352
-223 110 -411 207 -419 217 -18 21 -1 83 32 122 l23 26 75 -32 c40 -18 198
-89 348 -157 288 -130 315 -137 327 -89 13 54 11 55 -349 218 -372 169 -455
218 -476 281 -17 51 17 137 55 137 7 0 203 -95 435 -210 233 -115 433 -210
444 -210 30 0 45 19 45 58 l0 33 -432 213 c-412 203 -434 215 -450 250 -22 45
-23 85 -3 113 21 30 83 46 132 35 21 -5 209 -101 418 -214 209 -112 389 -207
399 -211 11 -5 28 -1 43 8 19 13 23 23 21 48 -3 30 -15 38 -378 233 -206 111
-376 207 -378 214 -9 27 10 62 43 76 73 30 86 26 484 -180 725 -374 708 -367
791 -324 31 16 51 36 68 68 38 73 30 104 -97 365 -62 128 -111 243 -111 258 0
40 35 85 73 95 40 10 74 4 81 -14 5 -12 471 -732 630 -974 l43 -65 -223 -447
-224 -448 62 0 63 1 198 399 199 399 133 82 c73 44 135 88 137 97 6 22 -11
1030 -18 1060 -4 18 -146 93 -824 432 -877 438 -847 426 -934 394z m873 -483
l779 -390 6 -258 c3 -142 7 -359 8 -482 l3 -224 -65 -40 c-42 -26 -69 -36 -77
-31 -7 5 -68 95 -136 199 -68 105 -211 325 -319 490 -107 165 -207 319 -222
343 -32 51 -74 72 -146 72 -81 0 -152 -46 -192 -124 -38 -74 -26 -121 100
-380 62 -126 112 -238 112 -249 0 -27 -28 -57 -53 -57 -17 0 -334 158 -779
389 l-146 76 210 5 c193 5 211 7 224 24 18 25 18 36 -2 64 l-15 22 -430 0
c-459 0 -473 1 -499 49 -16 31 -12 93 10 129 l20 32 587 0 c549 0 591 2 628
19 101 45 137 167 72 242 -12 15 -145 109 -295 209 -150 101 -275 187 -278
192 -14 22 48 66 94 67 12 1 373 -174 801 -388z"/>
</g>
</svg>
