<?xml version="1.0" standalone="no"?>
<!DOCTYPE svg PUBLIC "-//W3C//DTD SVG 20010904//EN"
 "http://www.w3.org/TR/2001/REC-SVG-20010904/DTD/svg10.dtd">
<svg version="1.0" xmlns="http://www.w3.org/2000/svg"
 width="371.000000pt" height="367.000000pt" viewBox="0 0 371.000000 367.000000"
 preserveAspectRatio="xMidYMid meet">
<metadata>
Created by potrace 1.14, written by Peter Selinger 2001-2017
</metadata>
<g transform="translate(0.000000,367.000000) scale(0.100000,-0.100000)"
fill="#000000" stroke="none">
<path d="M1885 3366 c-83 -21 -147 -57 -205 -116 -162 -161 -156 -400 12 -556
l58 -53 -2 -172 -3 -171 -45 -4 c-55 -5 -104 -20 -148 -45 l-34 -19 -56 27
c-50 25 -68 28 -152 28 -87 0 -101 -3 -159 -32 l-64 -31 -36 23 c-104 69 -267
53 -349 -33 -13 -15 -33 -45 -43 -67 -18 -38 -19 -83 -19 -791 0 -663 2 -756
16 -798 22 -63 101 -148 171 -182 l55 -27 679 6 c374 4 686 10 694 14 7 5 28
28 46 53 91 126 522 723 664 920 89 124 188 261 220 305 123 170 126 229 15
328 -76 68 -131 92 -215 92 -59 0 -81 -5 -136 -32 -64 -32 -70 -38 -298 -328
-129 -162 -237 -295 -240 -295 -3 0 -21 9 -38 20 l-33 20 0 601 0 601 48 43
c95 85 143 221 122 342 -22 129 -100 233 -220 291 -103 51 -204 63 -305 38z
m211 -126 c158 -55 239 -221 177 -361 -12 -26 -25 -49 -29 -52 -5 -3 -8 35 -6
84 6 162 -27 242 -117 282 -119 52 -299 0 -351 -103 -17 -32 -20 -59 -20 -155
0 -68 -4 -115 -10 -115 -15 0 -47 71 -55 122 -31 207 198 373 411 298z m-33
-171 c12 -7 24 -14 27 -16 3 -3 7 -372 10 -822 l5 -817 24 -36 c32 -46 80 -78
143 -94 100 -26 95 -31 362 305 130 165 249 307 264 317 14 10 47 19 73 22 50
5 82 -8 139 -56 32 -27 34 -31 22 -57 -7 -15 -86 -129 -176 -253 -477 -664
-693 -963 -730 -1012 l-42 -55 -634 -7 -635 -7 -42 25 c-24 14 -54 41 -68 62
l-25 37 0 742 0 742 23 26 c47 55 143 46 218 -20 27 -25 54 -45 60 -45 16 0
49 19 81 48 40 37 82 50 153 51 70 1 105 -14 123 -52 15 -31 52 -50 79 -40 10
3 35 21 55 39 34 30 118 64 158 64 9 0 25 -7 36 -15 26 -19 73 -19 96 2 17 15
18 42 18 443 l0 427 24 22 c40 37 117 52 159 30z"/>
</g>
</svg>
